HIERARCHY
ROOT Hips
{
	OFFSET 0.000000 0.000000 0.000000
	CHANNELS 6 Xposition Yposition Zposition Zrotation Yrotation Xrotation 
	JOINT LHipJoint
	{
		OFFSET 0.000000 0.000000 0.000000
		CHANNELS 3 Zrotation Yrotation Xrotation
		JOINT LeftUpLeg
		{
			OFFSET 1.363060 -1.794630 0.839290
			CHANNELS 3 Zrotation Yrotation Xrotation
			JOINT LeftLeg
			{
				OFFSET 2.448110 -6.726130 0.000000
				CHANNELS 3 Zrotation Yrotation Xrotation
				JOINT LeftFoot
				{
					OFFSET 2.562200 -7.039590 0.000000
					CHANNELS 3 Zrotation Yrotation Xrotation
					JOINT LeftToeBase
					{
						OFFSET 0.157640 -0.433110 2.322550
						CHANNELS 3 Zrotation Yrotation Xrotation
						End Site
						{
							OFFSET 0.000000 0.000000 0.000000
						}
					}
				}
			}
		}
	}
	JOINT RHipJoint
	{
		OFFSET 0.000000 0.000000 0.000000
		CHANNELS 3 Zrotation Yrotation Xrotation
		JOINT RightUpLeg
		{
			OFFSET -1.305520 -1.794630 0.839290
			CHANNELS 3 Zrotation Yrotation Xrotation
			JOINT RightLeg
			{
				OFFSET -2.542530 -6.985550 0.000000
				CHANNELS 3 Zrotation Yrotation Xrotation
				JOINT RightFoot
				{
					OFFSET -2.568260 -7.056230 0.000000
					CHANNELS 3 Zrotation Yrotation Xrotation
					JOINT RightToeBase
					{
						OFFSET -0.164730 -0.452590 2.363150
						CHANNELS 3 Zrotation Yrotation Xrotation
						End Site
						{
							OFFSET 0.000000 0.000000 0.000000
						}
					}
				}
			}
		}
	}
	JOINT LowerBack
	{
		OFFSET 0.000000 0.000000 0.000000
		CHANNELS 3 Zrotation Yrotation Xrotation
		JOINT Spine
		{
			OFFSET 0.028270 2.035590 -0.193380
			CHANNELS 3 Zrotation Yrotation Xrotation
			JOINT Spine1
			{
				OFFSET 0.056720 2.048850 -0.042750
				CHANNELS 3 Zrotation Yrotation Xrotation
				JOINT Neck
				{
					OFFSET 0.000000 0.000000 0.000000
					CHANNELS 3 Zrotation Yrotation Xrotation
					JOINT Neck1
					{
						OFFSET -0.054170 1.746240 0.172020
						CHANNELS 3 Zrotation Yrotation Xrotation
						JOINT Head
						{
							OFFSET 0.104070 1.761360 -0.123970
							CHANNELS 3 Zrotation Yrotation Xrotation
							End Site
							{
								OFFSET 0.000000 0.000000 0.000000
							}
						}
					}
				}
				JOINT LeftShoulder
				{
					OFFSET 0.000000 0.000000 0.000000
					CHANNELS 3 Zrotation Yrotation Xrotation
					JOINT LeftArm
					{
						OFFSET 3.362410 1.200890 -0.311210
						CHANNELS 3 Zrotation Yrotation Xrotation
						JOINT LeftForeArm
						{
							OFFSET 4.983000 -0.000000 -0.000000
							CHANNELS 3 Zrotation Yrotation Xrotation
							JOINT LeftHand
							{
								OFFSET 3.483560 -0.000000 -0.000000
								CHANNELS 3 Zrotation Yrotation Xrotation
								JOINT LeftFingerBase
								{
									OFFSET 0.000000 0.000000 0.000000
									CHANNELS 3 Zrotation Yrotation Xrotation
									JOINT LeftHandIndex1
									{
										OFFSET 0.715260 -0.000000 -0.000000
										CHANNELS 3 Zrotation Yrotation Xrotation
										End Site
										{
											OFFSET 0.000000 0.000000 0.000000
										}
									}
								}
								JOINT LThumb
								{
									OFFSET 0.000000 0.000000 0.000000
									CHANNELS 3 Zrotation Yrotation Xrotation
									End Site
									{
										OFFSET 0.000000 0.000000 0.000000
									}
								}
							}
						}
					}
				}
				JOINT RightShoulder
				{
					OFFSET 0.000000 0.000000 0.000000
					CHANNELS 3 Zrotation Yrotation Xrotation
					JOINT RightArm
					{
						OFFSET -3.136600 1.374050 -0.404650
						CHANNELS 3 Zrotation Yrotation Xrotation
						JOINT RightForeArm
						{
							OFFSET -5.241900 -0.000000 -0.000000
							CHANNELS 3 Zrotation Yrotation Xrotation
							JOINT RightHand
							{
								OFFSET -3.444170 -0.000000 -0.000000
								CHANNELS 3 Zrotation Yrotation Xrotation
								JOINT RightFingerBase
								{
									OFFSET 0.000000 0.000000 0.000000
									CHANNELS 3 Zrotation Yrotation Xrotation
									JOINT RightHandIndex1
									{
										OFFSET -0.622530 -0.000000 -0.000000
										CHANNELS 3 Zrotation Yrotation Xrotation
										End Site
										{
											OFFSET 0.000000 0.000000 0.000000
										}
									}
								}
								JOINT RThumb
								{
									OFFSET 0.000000 0.000000 0.000000
									CHANNELS 3 Zrotation Yrotation Xrotation
									End Site
									{
										OFFSET 0.000000 0.000000 0.000000
									}
								}
							}
						}
					}
				}
			}
		}
	}
}
MOTION
Frames: 11
Frame Time: 0.008333
9.491749 17.359901 -25.896014 -3.787292 -11.626817 9.637985 -0.024236 -2.645713 -5.157672 -10.946561 6.804978 -40.239781 -0.830121 11.913917 25.158057 -2.105627 15.286928 26.461762 0.047600 -1.408700 -3.874100 1.232387 -3.241422 5.567668 14.207111 3.183641 8.983945 2.090354 -4.743425 17.273222 -1.898882 -2.595990 32.371061 -0.732100 5.466600 -15.244200 0.898182 5.853241 -3.105142 0.501905 6.853904 -4.883870 4.742901 4.312852 6.230597 -10.724668 -6.821556 -15.730027 6.217105 -6.939655 7.104110 6.211200 -3.512600 10.715800 -1.477298 -5.262976 -0.822493 -83.537201 24.041813 -14.433425 1.003555 -7.588157 -0.435502 0.539952 2.087362 35.915668 9.888427 -22.729358 -4.506000 -7.125000 0.000000 0.000000 -11.482900 5.317400 10.589000 -0.190413 8.253927 1.046534 68.565976 9.610738 46.090901 -26.934559 32.179771 -11.005144 2.919033 2.492726 -20.970116 -31.272415 -18.894124 13.170400 7.125000 0.000000 0.000000 -6.894100 -53.331500 1.418000
9.513757 17.366207 -25.754445 -3.573078 -11.525780 9.479792 -0.060714 -2.627536 -5.029358 -11.350023 6.887709 -40.193741 -0.769377 12.049597 25.764948 -1.956011 14.592953 25.999964 0.037190 -1.236549 -3.400046 1.219123 -3.193901 5.488131 13.898407 2.720765 8.320500 1.773208 -5.326033 18.838926 -1.920658 -2.944996 33.214915 -0.700810 5.350049 -14.909960 0.693671 5.768705 -2.933375 0.511404 6.761748 -4.907244 4.844463 4.254288 5.985457 -10.812387 -6.789337 -15.531604 6.184095 -6.876288 7.122968 6.202418 -3.505505 10.690850 -1.468286 -5.303161 -0.822398 -83.721562 24.052987 -15.279309 0.967311 -7.476859 -0.428602 0.568945 2.123867 36.928023 10.317165 -22.961778 -4.753525 -7.125000 0.000000 0.000000 -11.211065 5.004795 10.394516 -0.184896 8.272825 1.033729 68.644520 9.106917 46.103774 -26.750823 32.069488 -10.935884 2.943042 2.598058 -21.132190 -31.560349 -19.623255 13.822595 7.125000 0.000000 0.000000 -7.222349 -54.299615 1.662559
9.535259 17.375167 -25.614067 -3.339035 -11.441378 9.310713 -0.104172 -2.606977 -4.897118 -11.759814 6.976420 -40.111886 -0.715500 12.167354 26.323957 -1.813332 13.943500 25.577786 0.034253 -1.183830 -3.254930 1.206353 -3.145540 5.399041 13.577820 2.312361 7.665926 1.436155 -5.923668 20.450165 -1.928225 -3.329429 33.993699 -0.650168 5.150897 -14.341035 0.487771 5.699304 -2.764409 0.509594 6.691546 -4.923115 4.896643 4.207041 5.785633 -10.884137 -6.771103 -15.362289 6.169627 -6.836897 7.127560 6.211064 -3.503125 10.666438 -1.472379 -5.337279 -0.821516 -83.814315 24.046467 -15.509778 0.969670 -7.456653 -0.429427 0.572861 2.147446 37.346298 10.673122 -23.073174 -4.940999 -7.125000 0.000000 0.000000 -10.983386 4.836997 10.211700 -0.187063 8.287559 1.023991 68.766944 8.681917 46.093191 -26.524629 31.924770 -10.839350 2.968831 2.695517 -21.308359 -31.848864 -20.290721 14.434468 7.125000 0.000000 0.000000 -7.558888 -55.187869 1.901145
9.555465 17.390933 -25.476745 -3.054145 -11.399626 9.113720 -0.165528 -2.580311 -4.754813 -12.185833 7.080469 -39.938202 -0.679230 12.239152 26.760193 -1.688438 13.408208 25.257197 0.050479 -1.437345 -3.953245 1.194851 -3.095022 5.285459 13.226766 2.043629 7.034100 1.048061 -6.559834 22.178162 -1.899360 -3.804696 34.605635 -0.549902 4.739946 -13.170353 0.278311 5.668711 -2.602627 0.478788 6.677636 -4.919751 4.822200 4.188813 5.702001 -10.914940 -6.788725 -15.267609 6.202703 -6.858982 7.095572 6.264395 -3.512838 10.643407 -1.510076 -5.355842 -0.818617 -83.672176 23.994580 -14.162258 1.071010 -7.670019 -0.450059 0.512475 2.137879 36.241289 10.842464 -22.874255 -4.974499 -7.125000 0.000000 0.000000 -10.868929 5.040495 10.058800 -0.208932 8.291616 1.022117 69.001880 8.459027 46.022463 -26.189568 31.691754 -10.672883 2.999185 2.772786 -21.520670 -32.138869 -20.800071 14.942952 7.125000 0.000000 0.000000 -7.916682 -55.871354 2.124417
9.575382 17.406699 -25.340686 -2.646302 -11.363700 8.965196 -0.242145 -2.563041 -4.613484 -12.721506 7.158422 -39.782915 -0.667421 12.288673 27.125808 -1.588444 12.929473 24.884458 0.058808 -1.564657 -4.304020 1.183796 -3.041918 5.157192 12.756673 1.798948 6.298775 0.610674 -7.214026 23.970263 -1.843597 -4.398454 35.158532 -0.453030 4.301319 -11.928426 -0.073652 5.626467 -2.541937 0.440911 6.650945 -4.911767 4.769860 4.158439 5.700816 -10.911618 -6.798002 -15.255747 6.227879 -6.874475 7.069073 6.293903 -3.513804 10.630265 -1.552084 -5.372340 -0.812307 -83.505212 23.819292 -12.860427 1.160307 -7.858631 -0.468370 0.454859 2.127783 35.066601 10.961269 -22.699707 -4.988841 -7.125000 0.000000 0.000000 -10.788544 5.223237 9.943497 -0.221840 8.288415 1.017126 69.232918 8.318252 45.942104 -25.826333 31.409403 -10.453496 3.006677 2.785347 -21.592694 -32.033868 -20.829611 14.915325 7.125000 0.000000 0.000000 -7.809773 -55.886943 2.098971
9.595072 17.422465 -25.205616 -2.142304 -11.332328 8.854577 -0.330698 -2.553118 -4.472919 -13.342935 7.215969 -39.642015 -0.674740 12.320772 27.436195 -1.507921 12.494967 24.470937 0.060959 -1.593271 -4.383000 1.173089 -2.986793 5.017442 12.193485 1.573077 5.482507 0.134739 -7.882315 25.812497 -1.766797 -5.084876 35.665256 -0.358812 3.841049 -10.630782 -0.537059 5.575113 -2.560307 0.397507 6.614259 -4.900172 4.734804 4.118565 5.764110 -10.881609 -6.800753 -15.308652 6.246874 -6.884812 7.046868 6.304779 -3.507930 10.624856 -1.597463 -5.387222 -0.803331 -83.318836 23.547500 -11.594326 1.240184 -8.027882 -0.484865 0.399409 2.117273 33.837420 11.040553 -22.544219 -4.988201 -7.125000 0.000000 0.000000 -10.734805 5.389746 9.857596 -0.227739 8.279536 1.009698 69.460907 8.241695 45.854212 -25.441064 31.088468 -10.192721 2.996289 2.747304 -21.555008 -31.619951 -20.483915 14.468431 7.125000 0.000000 0.000000 -7.339441 -55.380203 1.879013
9.616118 17.435576 -25.070546 -1.527512 -11.257210 8.750502 -0.438418 -2.545560 -4.323690 -14.043565 7.162369 -39.458626 -0.702844 12.332642 27.677077 -1.494259 12.169147 23.842370 0.043481 -1.314405 -3.614831 1.145070 -2.933659 4.865178 11.550688 1.295612 4.602778 -0.406084 -8.546734 27.716819 -1.667383 -5.810982 36.035342 -0.308457 3.564209 -9.854303 -1.134318 5.483420 -2.568063 0.362380 6.524987 -4.900047 4.770919 4.046586 5.771989 -10.832442 -6.776010 -15.378872 6.201184 -6.856656 7.059279 6.241195 -3.493097 10.640057 -1.616871 -5.420408 -0.802485 -83.272895 23.261171 -10.675855 1.287891 -8.131644 -0.495320 0.360648 2.130958 32.878263 11.236119 -22.629018 -5.092764 -7.125000 0.000000 0.000000 -10.615077 5.277218 9.766310 -0.223975 8.275647 0.992919 69.645802 8.066695 45.777660 -25.130876 30.835882 -10.007589 3.000659 2.761483 -21.490313 -31.480524 -20.578029 14.466774 7.125000 0.000000 0.000000 -7.178890 -55.474570 1.852277
9.637371 17.447937 -24.935672 -0.919368 -11.173457 8.645155 -0.548556 -2.537970 -4.172959 -14.728053 7.085961 -39.253388 -0.734391 12.336037 27.891280 -1.494116 11.872945 23.182919 0.023876 -0.993507 -2.730965 1.112841 -2.877146 4.707136 10.931790 1.024050 3.720096 -0.960770 -9.207579 29.636138 -1.563089 -6.524065 36.349080 -0.277567 3.386069 -9.355622 -1.725218 5.385679 -2.563427 0.330683 6.426326 -4.902611 4.817876 3.969226 5.765051 -10.783758 -6.745467 -15.453889 6.143459 -6.818716 7.079424 6.166072 -3.475997 10.662640 -1.629408 -5.457304 -0.805508 -83.260359 22.987836 -9.717772 1.343039 -8.248296 -0.507241 0.320043 2.145338 31.864094 11.448488 -22.732425 -5.208415 -7.125000 0.000000 0.000000 -10.485486 5.143262 9.670156 -0.218602 8.272931 0.974243 69.821192 7.864042 45.704315 -24.835479 30.599492 -9.842236 3.011252 2.793064 -21.428752 -31.446184 -20.813724 14.617114 7.125000 0.000000 0.000000 -7.139161 -55.764653 1.894366
9.658284 17.458490 -24.802211 -0.508437 -11.086770 8.521851 -0.650177 -2.526946 -4.023143 -15.189822 6.995853 -38.948688 -0.762603 12.305900 28.007816 -1.500761 11.642639 22.592018 0.015501 -0.785879 -2.159960 1.073758 -2.793687 4.524508 10.591829 0.864474 2.901868 -1.527383 -9.848005 31.579297 -1.454297 -7.090133 36.442812 -0.327177 3.668722 -10.147282 -2.089854 5.298971 -2.484177 0.312435 6.331234 -4.908994 4.846604 3.896580 5.726554 -10.764392 -6.710409 -15.539966 6.086663 -6.762511 7.108354 6.108611 -3.454710 10.710388 -1.627674 -5.496122 -0.825323 -83.298042 22.827356 -8.006313 1.495007 -8.545831 -0.537835 0.243689 2.132070 30.090754 11.624523 -22.645115 -5.261689 -7.125000 0.000000 0.000000 -10.374169 5.232070 9.546336 -0.214730 8.271904 0.954559 69.986525 7.595778 45.638675 -24.544920 30.387096 -9.716754 3.046582 2.879061 -21.426117 -31.795592 -21.471985 15.257444 7.125000 0.000000 0.000000 -7.548484 -56.648146 2.169632
9.678342 17.471999 -24.670383 -0.102425 -10.989781 8.430525 -0.746970 -2.521391 -3.878539 -15.654102 6.902531 -38.663407 -0.792822 12.273823 28.116299 -1.489656 11.390300 22.054575 0.016451 -0.793559 -2.181219 1.035678 -2.700470 4.338984 10.274441 0.714015 2.037058 -2.086172 -10.465592 33.503197 -1.378390 -7.509263 36.544207 -0.428616 4.158832 -11.530363 -2.457965 5.207494 -2.440633 0.294078 6.229571 -4.918604 4.881399 3.822569 5.673605 -10.759634 -6.672241 -15.577201 6.045796 -6.702393 7.126623 6.070504 -3.431597 10.734354 -1.630121 -5.535096 -0.845035 -83.326845 22.692244 -6.187169 1.674967 -8.888009 -0.574449 0.164635 2.107701 28.145746 11.737125 -22.513745 -5.274287 -7.125000 0.000000 0.000000 -10.303389 5.380066 9.449414 -0.211195 8.274222 0.936995 70.175725 7.342547 45.561626 -24.203418 30.116826 -9.546025 3.077490 2.932189 -21.356414 -31.999520 -21.895440 15.660138 7.125000 0.000000 0.000000 -7.793439 -57.211151 2.340842
9.697132 17.489888 -24.540975 0.296296 -10.877520 8.386595 -0.836604 -2.523944 -3.741659 -16.122106 6.804448 -38.406908 -0.826014 12.238870 28.212846 -1.452241 11.105304 21.596363 0.031224 -1.120354 -3.080299 0.999084 -2.592789 4.149171 9.990512 0.577070 1.103207 -2.633366 -11.049331 35.398552 -1.351224 -7.710608 36.656959 -0.606873 4.956425 -13.790015 -2.831225 5.108948 -2.450012 0.275561 6.118168 -4.932994 4.925184 3.746535 5.599236 -10.776527 -6.629464 -15.542046 6.028539 -6.636473 7.129091 6.061082 -3.405774 10.723072 -1.638765 -5.574300 -0.864595 -83.342486 22.594732 -4.208423 1.896415 -9.296355 -0.619985 0.081580 2.066879 25.946299 11.755708 -22.317069 -5.226596 -7.125000 0.000000 0.000000 -10.292687 5.615784 9.392360 -0.208162 8.281497 0.922571 70.400297 7.111597 45.467667 -23.786410 29.760776 -9.308235 3.101843 2.936600 -21.187310 -31.987827 -21.970879 15.710620 7.125000 0.000000 0.000000 -7.794777 -57.299146 2.357824
